<?xml version="1.0"?>
<svg xmlns="http://www.w3.org/2000/svg" xmlns:xlink="http://www.w3.org/1999/xlink" version="1.1" id="Layer_1" x="0px" y="0px" viewBox="0 0 512.002 512.002" style="enable-background:new 0 0 512.002 512.002;" xml:space="preserve" width="512px" height="512px" class=""><g><g>
	<g>
		<path d="M510.269,161.127c-2.911-10.143-7.774-17.605-14.867-22.81c-0.02-0.015-0.041-0.027-0.062-0.042    c-5.407-3.95-11.324-6.086-17.048-8.149c-4.652-1.677-9.463-3.41-14.079-6.177h0.001c-10.842-6.499-17.319-10.756-21.605-13.572    c-9.506-6.246-11.117-7.071-21.454-7.791c-5.182-0.36-13.854-0.964-30.684-3.544c-2.381-0.364-2.427-0.411-4.857-2.851    c-3.113-3.123-7.817-7.843-18.609-13.261c-9.243-4.637-18.518-6.529-28.364-5.791c-6.405,0.483-11.376,2.944-19.61,7.021    c-1.763,0.872-3.678,1.82-5.837,2.868c0.367-4.774,0.678-10.013,0.901-14.179c5.751-14.585,5.193-19.435-2.7-30.484    c-1.393-1.948-2.954-4.135-4.785-7.005c-3.391-8.232-11.3-14.205-20.954-15.724c-10.303-1.618-20.389,1.972-26.701,9.412    c-12.092,8.983-43.082,19.697-59.119,16.014c-1.934-0.444-3.271-1.019-4.202-1.595c0.916-2.847,1.831-5.694,2.745-8.543    c0.301-0.94,0.462-1.92,0.477-2.907c0.142-9.698-3.223-16.425-10.001-19.992c-5.172-2.722-11.169-2.913-18.113-3.135    c-1.083-0.035-2.21-0.071-3.382-0.118c-16.714-0.671-39.356,2.691-48.119,14.378c-3.804,5.074-4.78,11.201-2.746,17.252    c0.39,1.162,0.991,2.242,1.772,3.186l3.457,4.183c-3.975,2.895-11.011,6.564-14.108,8.18c-0.474,0.247-0.937,0.488-1.387,0.725    c-6.263-3.576-13.463-7.669-14.634-8.251c-0.286-0.142-0.578-0.27-0.876-0.384c-17.25-6.6-32.905-2.716-41.882,10.391    c-9.068,13.24-8.73,32.34,0.204,45.713c-1.371,6.866-2.851,13.96-3.971,18.956c-14.312-0.114-24.605,2-31.332,6.48    c-4.506,3.002-7.079,8.159-7.868,15.767c0,0.001,0,0.002,0,0.003c-0.504,4.865-0.197,10.459,0.309,14.564    C3.308,164.913,0,172.881,0,181.652c0,14.514,7.396,25.73,21.393,32.451c5.638,2.89,12.767,0.773,26.715-3.792    c1.04-0.34,2.207-0.722,3.347-1.088c12.623,16.667,36.1,13.594,48.086,8.961c1.953-0.706,4.08-1.392,6.037-1.964    c2.502,9.884,6.816,24.683,18.746,29.581c3.382,1.457,24.055,9.465,25.921,10.184c4.9,1.887,8.404,2.971,10.962,3.762    c2.04,0.631,3.514,1.086,4.813,1.665c3.193,1.422,4.489,2.491,4.936,2.935c-0.053,0.574-0.246,1.552-0.382,2.243    c-0.747,3.793-1.997,10.141,2.417,16.491c3.689,5.308,10.356,9.071,21.601,12.188l3.762,1.234c0.354,1.147,0.836,3.168,1.25,6.515    c0,0.002,0,0.004,0,0.006c1.378,11.16,0.647,26.468,0.083,29.337c-0.259,1.11-0.327,2.257-0.199,3.391    c0.338,3.002,0.721,6.405,24.48,44.977c7.121,11.56,14.263,22.881,18.555,29.647c-7.831,9.742-19.11,26.017-23.374,32.354    c-4.305,6.398-5.467,14.292-3.189,21.656c2.281,7.37,7.703,13.232,14.877,16.084c4.887,1.942,9.98,3.876,14.071,5.429    c2.261,0.858,4.749,1.803,6.156,2.358c0.42,0.405,0.94,0.915,1.397,1.362c8.397,8.227,14.493,13.693,21.183,13.692    c0.258,0,0.519-0.008,0.778-0.024c3.286-0.208,6.208-1.729,8.227-4.28c0.148-0.189,0.291-0.382,0.426-0.58l16.514-24.265    l7.721-9.184c3.176-3.777,6.353-7.556,9.525-11.334c0.181-0.216,0.354-0.439,0.516-0.67l1.647-2.333    c10.717-15.173,11.392-17.023,12.042-33.009c0.039-0.951,0.08-1.967,0.128-3.058c9.577-9.343,19.646-18.961,22.021-20.898    c14.552-8.64,24.268-9.649,32.848-10.541c8.729-0.907,17.754-1.845,27.148-10.136c8.739-7.713,16.852-20.91,27.123-44.128    c1.342-3.035,3.844-9.65,7.435-19.664c0.482-1.347,0.951-2.763,1.476-4.457c0.002-0.005,0.002-0.011,0.004-0.017    c2.367-7.651,3.862-15.538,4.444-23.441c0.333-4.512,0.411-6.096,0.464-7.144c0.056-1.127,0.066-1.347,0.603-6.529    c1.815-3.501,8.577-14.353,15.693-23.552l14.628-18.934c0.049-0.064,0.097-0.127,0.145-0.192c1.42-1.934,2.852-3.848,4.272-5.748    c11.076-14.813,22.53-30.13,22.53-47.54C512,167.661,511.073,163.928,510.269,161.127z M65.336,69.733    c3.519-5.139,9.469-6.218,17.686-3.217c2.309,1.266,11.7,6.616,18.15,10.309c3.207,1.835,7.164,1.751,10.292-0.213    c1.03-0.648,3.153-1.755,5.399-2.927c13.599-7.093,24.179-13.245,26.425-22.382c0.972-3.955,0.223-7.979-2.109-11.33    c-0.157-0.227-0.324-0.446-0.5-0.658l-4.305-5.21c3.759-2.596,15.046-5.95,30.182-5.348c1.228,0.049,2.41,0.087,3.546,0.123    c2.93,0.094,6.777,0.217,8.649,0.611c0.032,0.234,0.062,0.526,0.082,0.887c-1.247,3.887-2.498,7.772-3.748,11.656l-0.134,0.418    c-0.784,2.437-0.604,5.082,0.503,7.39c2.495,5.198,7.972,11.971,19.902,14.713c23.836,5.476,62.044-8.697,76.861-20.477    c0.658-0.524,1.248-1.128,1.756-1.799c2.108-2.793,5.932-3.301,8.576-2.886c2.212,0.349,4.854,1.521,5.637,3.766    c0.247,0.71,0.573,1.389,0.973,2.025c2.372,3.781,4.362,6.567,5.962,8.807c1.146,1.603,2.434,3.407,2.782,4.167    c-0.08,1.136-1.079,4.079-2.976,8.759c-0.418,1.032-0.66,2.126-0.718,3.237c-0.509,9.826-1.36,21.882-1.831,24.157    c-0.939,3.84,0.121,7.797,2.835,10.587c1.583,1.624,5.783,5.945,20.599,2.75c0.751-0.162,1.48-0.41,2.175-0.738    c3.948-1.871,7.258-3.51,9.917-4.826c6.912-3.422,9.814-4.817,12.24-5.001c6.298-0.475,11.815,0.676,17.891,3.724    c7.889,3.96,10.824,6.905,13.414,9.504c3.335,3.347,7.116,7.14,15.993,8.501c17.646,2.705,26.835,3.344,32.325,3.727    c3.147,0.219,4.691,0.336,5.395,0.597c1.016,0.376,3.184,1.801,6.466,3.957c3.288,2.16,7.826,5.143,14.536,9.287H62.24    c1.068-3.039,2.944-10.531,7.301-32.82c0.605-3.093-0.284-6.29-2.397-8.627C61.364,88.542,60.519,76.766,65.336,69.733z     M422.016,320.779c-8.788,19.866-15.8,31.694-22.066,37.225c-4.408,3.891-8.085,4.417-15.981,5.237    c-9.653,1.003-22.875,2.377-41.44,13.506c-1.028,0.616-3.438,2.06-28.163,26.283c-1.794,1.758-2.861,4.126-2.989,6.635    c-0.14,2.74-0.235,5.097-0.319,7.154c-0.258,6.337-0.39,8.985-1.092,10.883c-0.822,2.226-3.124,5.484-7.303,11.399l-1.413,2.003    c-3.08,3.668-6.163,7.334-9.246,11l-8.052,9.579c-0.217,0.258-0.421,0.527-0.61,0.806L271.4,480.032    c-1.985-1.803-3.977-3.754-4.943-4.701c-2.423-2.373-3.426-3.355-4.813-4.191c-1.181-0.714-2.198-1.116-9.637-3.94    c-4.027-1.528-9.038-3.431-13.781-5.316c-2.087-0.829-2.875-2.493-3.159-3.41c-0.283-0.915-0.572-2.726,0.676-4.58    c11.189-16.63,23.183-32.603,26.033-35.246c3.547-3.29,4.23-8.648,1.622-12.723c-19.018-29.713-39.706-63.501-43.718-72.251    c0.587-5.083,0.889-13.565,0.602-21.875h205.234C423.449,317.368,422.465,319.764,422.016,320.779z M473.452,207.216    c-1.431,1.914-2.873,3.843-4.304,5.79L454.6,231.838c-0.135,0.175-9.779,12.852-15.502,22.79H269.122c-5.522,0-10,4.477-10,10    c0,5.522,4.478,10,10,10h164.952c-0.061,1.031-0.162,2.581-0.354,5.194c-0.296,4.009-0.882,8.015-1.751,11.976H217.818    c-1.668-6.055-4.689-11.501-10.66-13.456l-6.552-2.15c-0.156-0.052-0.314-0.1-0.473-0.142c-6.487-1.782-9.202-3.291-10.228-4.012    c0.078-0.489,0.196-1.09,0.293-1.583c1.806-9.169,1.313-19.583-16.039-27.313c-2.389-1.064-4.546-1.731-7.043-2.503    c-2.539-0.785-5.416-1.675-9.686-3.318c-6.176-2.378-23.357-9.076-25.174-9.879c-0.109-0.048-0.218-0.094-0.329-0.139    c-1.817-0.73-3.837-4.958-6.019-12.568h276.239c5.522,0,10-4.477,10-10c0-5.522-4.478-10-10-10H112.072    c-5.903,0-15.57,3.276-19.452,4.685c-0.075,0.027-0.149,0.055-0.223,0.084c-0.209,0.081-21.026,8.017-26.862-5.652    c-1.104-2.585-3.245-4.587-5.899-5.514c-4.201-1.467-7.89-0.261-17.748,2.966c-3.724,1.219-10.228,3.347-13.399,3.967    C21.054,191.154,20,186.107,20,181.652c0-5.867,3.267-11.64,4.311-13.133c2.098-2.491,2.861-5.868,2.007-9.041    c-0.103-0.51-0.273-1.639-0.421-3.099h459.882c1.821,1.929,3.742,4.959,5.267,10.27c0.444,1.545,0.954,3.51,0.954,5.003    C492,182.412,482.991,194.46,473.452,207.216z" data-original="#000000" class="active-path" data-old_color="#000000" fill="#FFFFFF"/>
	</g>
</g><g>
	<g>
		<path d="M450.21,202.782c-0.13-0.64-0.32-1.271-0.57-1.87c-0.25-0.61-0.559-1.191-0.92-1.73c-0.37-0.551-0.78-1.061-1.25-1.52    c-0.46-0.46-0.97-0.88-1.52-1.24c-0.54-0.359-1.12-0.67-1.721-0.92c-0.6-0.25-1.229-0.439-1.87-0.569    c-1.29-0.261-2.619-0.261-3.909,0c-0.641,0.13-1.271,0.319-1.87,0.569c-0.601,0.25-1.181,0.561-1.73,0.92    c-0.54,0.36-1.06,0.78-1.52,1.24c-0.46,0.46-0.88,0.97-1.24,1.52c-0.36,0.539-0.67,1.119-0.92,1.73c-0.25,0.6-0.44,1.23-0.57,1.87    c-0.13,0.64-0.2,1.3-0.2,1.95c0,0.649,0.07,1.309,0.2,1.96c0.13,0.64,0.32,1.26,0.57,1.87c0.25,0.6,0.56,1.18,0.92,1.72    c0.36,0.55,0.78,1.06,1.24,1.52c0.46,0.46,0.979,0.881,1.52,1.25c0.55,0.36,1.13,0.67,1.73,0.92c0.6,0.25,1.229,0.441,1.87,0.57    c0.649,0.13,1.3,0.191,1.949,0.191c0.66,0,1.311-0.061,1.96-0.191c0.641-0.13,1.271-0.32,1.87-0.57    c0.601-0.25,1.181-0.559,1.721-0.92c0.55-0.369,1.06-0.79,1.52-1.25c0.47-0.46,0.88-0.97,1.25-1.52c0.36-0.54,0.67-1.12,0.92-1.72    c0.25-0.61,0.441-1.23,0.57-1.87c0.13-0.65,0.189-1.311,0.189-1.96C450.399,204.082,450.339,203.421,450.21,202.782z" data-original="#000000" class="active-path" data-old_color="#000000" fill="#FFFFFF"/>
	</g>
</g><g>
	<g>
		<path d="M240.67,262.671c-0.13-0.639-0.32-1.269-0.57-1.87c-0.25-0.6-0.56-1.18-0.92-1.729c-0.36-0.54-0.78-1.061-1.24-1.521    c-0.46-0.46-0.97-0.88-1.52-1.239c-0.54-0.36-1.13-0.67-1.73-0.92s-1.23-0.44-1.87-0.57c-1.29-0.26-2.62-0.26-3.91,0    c-0.64,0.13-1.26,0.32-1.87,0.57c-0.6,0.25-1.18,0.56-1.72,0.92c-0.55,0.359-1.06,0.779-1.53,1.239    c-0.46,0.46-0.87,0.98-1.24,1.521c-0.36,0.55-0.67,1.13-0.92,1.729c-0.25,0.601-0.44,1.23-0.57,1.87c-0.13,0.65-0.2,1.3-0.2,1.96    c0,0.65,0.07,1.301,0.2,1.95c0.13,0.64,0.32,1.27,0.57,1.87c0.25,0.6,0.56,1.18,0.92,1.73c0.37,0.539,0.78,1.05,1.24,1.52    c0.47,0.46,0.98,0.88,1.53,1.24c0.54,0.359,1.12,0.67,1.72,0.92c0.61,0.25,1.23,0.439,1.87,0.57c0.65,0.13,1.3,0.199,1.96,0.199    c0.65,0,1.31-0.069,1.95-0.199c0.64-0.131,1.27-0.32,1.87-0.57c0.6-0.25,1.19-0.561,1.73-0.92c0.55-0.36,1.06-0.78,1.52-1.24    c0.46-0.47,0.88-0.98,1.24-1.52c0.36-0.551,0.67-1.131,0.92-1.73s0.44-1.23,0.57-1.87c0.13-0.649,0.2-1.3,0.2-1.95    C240.87,263.971,240.8,263.321,240.67,262.671z" data-original="#000000" class="active-path" data-old_color="#000000" fill="#FFFFFF"/>
	</g>
</g></g> </svg>
